<svg id="Capa_1" enable-background="new 0 0 512 512" height="512" viewBox="0 0 512 512" width="512" xmlns="http://www.w3.org/2000/svg"><g><g><path d="m293.176 279.275c20.46-20.604 20.344-54.014-.261-74.476-20.634-20.489-53.966-20.395-74.477.26-20.509 20.652-20.395 53.965.261 74.476 20.608 20.466 54.02 20.341 74.477-.26zm-63.907-10.382c-14.77-14.667-14.856-38.491-.187-53.263 14.652-14.754 38.491-14.856 53.263-.186 14.736 14.633 14.82 38.527.187 53.263h.001c-14.636 14.734-38.53 14.818-53.264.186z"/><path d="m284.476 332.586c-.004-.971.607-1.832 1.52-2.143 3.921-1.337 7.786-2.954 11.488-4.803.853-.426 1.889-.253 2.578.431 6.755 6.708 17.708 6.667 24.416-.086l15.625-15.735c6.707-6.755 6.669-17.708-.087-24.417-.688-.683-.868-1.718-.448-2.573 1.822-3.711 3.411-7.588 4.723-11.522.306-.915 1.163-1.532 2.138-1.536 9.52-.034 17.236-7.806 17.204-17.325l-.078-22.175c-.034-9.519-7.744-17.204-17.267-17.204-.023 0-.045.001-.07 0-.967 0-1.824-.609-2.135-1.52-1.338-3.921-2.954-7.786-4.804-11.489-.426-.853-.253-1.888.432-2.577 6.707-6.755 6.668-17.708-.086-24.416l-15.735-15.625c-6.763-6.717-17.692-6.686-24.415.085-.685.688-1.718.869-2.574.449-3.713-1.823-7.59-3.412-11.523-4.723-.914-.305-1.531-1.162-1.534-2.136-.033-9.685-8.01-17.312-17.325-17.205l-22.175.078c-9.519.034-17.237 7.806-17.204 17.329.003.97-.607 1.832-1.52 2.143-3.924 1.339-7.789 2.956-11.487 4.803-.855.426-1.891.253-2.578-.43-6.764-6.717-17.692-6.686-24.417.085l-15.625 15.734c-6.723 6.77-6.687 17.693.085 24.417.688.684.869 1.718.448 2.575-1.824 3.718-3.413 7.595-4.722 11.521-.305.915-1.162 1.531-2.136 1.535-9.54.033-17.237 7.781-17.204 17.325l.077 22.175c.033 9.516 7.743 17.204 17.267 17.204.023 0 .049.003.071 0 .967 0 1.824.61 2.135 1.52 1.338 3.921 2.955 7.786 4.803 11.488.426.854.253 1.89-.43 2.578-6.708 6.755-6.669 17.708.085 24.416l15.734 15.625c6.766 6.718 17.693 6.686 24.416-.085.684-.689 1.719-.87 2.575-.448 3.714 1.823 7.59 3.411 11.521 4.722.915.305 1.532 1.162 1.535 2.136.033 9.511 7.738 17.205 17.262 17.205h.063l22.174-.078c9.518-.032 17.236-7.804 17.204-17.328zm-39.432 2.407c-.003 0-.006 0-.009 0-1.251 0-2.26-1.006-2.264-2.261-.026-7.413-4.764-13.967-11.79-16.31-3.296-1.099-6.545-2.431-9.657-3.958-6.658-3.269-14.623-1.897-19.828 3.344-.871.878-2.303.903-3.202.011l-15.734-15.625c-.887-.88-.892-2.317-.012-3.203 5.221-5.258 6.51-13.234 3.206-19.85-1.55-3.103-2.905-6.343-4.026-9.63-2.386-6.99-8.943-11.675-16.334-11.675-.024 0-.049-.002-.07 0-1.238 0-2.259-.995-2.264-2.256l-.077-22.175c-.005-1.248.995-2.268 2.261-2.272 7.412-.026 13.966-4.764 16.309-11.79 1.098-3.291 2.43-6.541 3.959-9.658 3.257-6.637 1.913-14.605-3.345-19.827-.887-.881-.897-2.311-.011-3.203l15.625-15.734c.915-.921 2.351-.858 3.203-.011 5.258 5.222 13.235 6.509 19.851 3.206 3.1-1.549 6.339-2.903 9.629-4.026 7.009-2.392 11.701-8.979 11.675-16.396-.004-1.249 1.008-2.269 2.257-2.273l22.174-.078c1.137-.038 2.268.923 2.273 2.261.026 7.412 4.764 13.966 11.79 16.309 3.297 1.1 6.546 2.431 9.657 3.959 6.642 3.258 14.605 1.912 19.828-3.345.861-.868 2.289-.919 3.202-.011l15.734 15.625c.887.88.892 2.317.012 3.203-5.222 5.259-6.51 13.236-3.206 19.85 1.551 3.103 2.905 6.343 4.026 9.628 2.384 6.991 8.941 11.677 16.334 11.677.023 0 .046.001.07 0 1.254 0 2.259 1.009 2.264 2.256l.078 22.174c.004 1.249-1.008 2.269-2.261 2.273-7.412.026-13.966 4.764-16.311 11.79-1.1 3.298-2.432 6.547-3.959 9.658-3.257 6.638-1.912 14.606 3.346 19.826.886.88.891 2.317.011 3.203l-15.625 15.735c-.878.888-2.316.891-3.202.011-5.259-5.222-13.235-6.51-19.851-3.206-3.103 1.55-6.343 2.905-9.629 4.026-7.01 2.392-11.702 8.979-11.676 16.396.004 1.249-1.008 2.269-2.257 2.273z"/><path d="m492.222 251.094v-68.638c0-100.606-81.85-182.456-182.456-182.456h-107.918c-100.607 0-182.457 81.85-182.457 182.457v11.461c0 4.142 3.358 7.5 7.5 7.5s7.5-3.358 7.5-7.5v-11.461c0-92.336 75.121-167.457 167.457-167.457h107.918c92.336 0 167.456 75.121 167.456 167.457v62.225c-1.122-.132-2.26-.208-3.417-.208h-20.222v-62.014c0-78.988-64.262-143.25-143.25-143.25h-109.052c-78.988 0-143.25 64.262-143.25 143.25v62.014c-20.007.083-20.242-.19-23.639.258v-15.955c0-4.142-3.358-7.5-7.5-7.5s-7.5 3.358-7.5 7.5v22.653c-6.222 5.32-10.178 13.218-10.178 22.026v98.367c0 15.98 13.001 28.982 28.982 28.982h20.758c3.345 13.327 15.423 23.227 29.774 23.227 20.284 0 36.786-16.502 36.786-36.786v-129.184c0-20.284-16.502-36.786-36.786-36.786-5.733 0-11.101 1.584-15.697 4.33v-43.147c0-70.717 57.533-128.25 128.25-128.25h109.053c70.718 0 128.25 57.533 128.25 128.25v43.147c-4.596-2.747-9.964-4.33-15.697-4.33-20.284 0-36.786 16.502-36.786 36.786v129.183c0 20.284 16.502 36.786 36.786 36.786 14.35 0 26.428-9.899 29.774-23.227h5.944v23.702c0 30.025-24.428 54.453-54.453 54.453h-41.392c-3.212-10.435-12.942-18.041-24.416-18.041h-51.28c-14.083 0-25.541 11.458-25.541 25.541s11.458 25.541 25.541 25.541h51.28c11.474 0 21.204-7.606 24.416-18.041h41.391c38.297 0 69.453-31.156 69.453-69.453v-23.702h.201c15.98 0 28.981-13.001 28.981-28.982v-98.367c0-8.992-4.116-17.041-10.564-22.361zm-468.008 120.729v-98.367c0-7.709 6.272-13.982 13.982-13.982h19.834v126.331h-19.834c-7.71 0-13.982-6.273-13.982-13.982zm64.513-135.547c12.013 0 21.786 9.773 21.786 21.786v129.183c0 12.013-9.773 21.786-21.786 21.786-8.655 0-15.697-7.042-15.697-15.697v-141.341c0-.008 0-.017 0-.025.004-8.653 7.044-15.692 15.697-15.692zm249.617 260.724h-51.28c-5.812 0-10.541-4.729-10.541-10.541s4.729-10.541 10.541-10.541h51.28c5.812 0 10.541 4.729 10.541 10.541s-4.729 10.541-10.541 10.541zm149.442-125.177c0 7.709-6.272 13.982-13.981 13.982h-20.222v-12.288c0-4.142-3.357-7.5-7.5-7.5s-7.5 3.358-7.5 7.5v19.817c0 8.655-7.042 15.697-15.697 15.697-12.013 0-21.786-9.773-21.786-21.786v-129.183c0-12.013 9.773-21.786 21.786-21.786 8.655 0 15.697 7.042 15.697 15.697v86.77c0 4.142 3.357 7.5 7.5 7.5s7.5-3.358 7.5-7.5v-79.27h20.222c7.709 0 13.981 6.272 13.981 13.982z"/></g></g></svg>